<?xml version="1.0" encoding="utf-8"?>
<!-- Generator: Adobe Illustrator 16.0.0, SVG Export Plug-In . SVG Version: 6.00 Build 0)  -->
<!DOCTYPE svg PUBLIC "-//W3C//DTD SVG 1.1//EN" "http://www.w3.org/Graphics/SVG/1.1/DTD/svg11.dtd">
<svg version="1.1" id="Layer_1" xmlns="http://www.w3.org/2000/svg" xmlns:xlink="http://www.w3.org/1999/xlink" x="0px" y="0px"
	 width="192px" height="156px" viewBox="0 0 192 156" enable-background="new 0 0 192 156" xml:space="preserve">
<g>
	<path fill="#3B4042" d="M22.668,128.861h5.668v14.441c0,2.293,0.07,3.777,0.211,4.457c0.242,1.092,0.82,1.967,1.733,2.629
		c0.913,0.66,2.16,0.99,3.744,0.99c1.608,0,2.821-0.313,3.638-0.938s1.309-1.391,1.475-2.301s0.249-2.42,0.249-4.529v-14.752h5.668
		v14.008c0,3.199-0.153,5.463-0.46,6.783c-0.306,1.322-0.871,2.439-1.694,3.348c-0.824,0.91-1.925,1.635-3.303,2.174
		c-1.379,0.539-3.179,0.811-5.4,0.811c-2.681,0-4.714-0.295-6.099-0.883c-1.385-0.588-2.48-1.352-3.284-2.293
		c-0.804-0.938-1.334-1.924-1.589-2.955c-0.37-1.525-0.555-3.783-0.555-6.768v-14.223H22.668L22.668,128.861z"/>
	<path fill="#3B4042" d="M51.046,155.527v-26.666h5.668v10.496H67.82v-10.496h5.668v26.666H67.82v-11.658H56.714v11.658H51.046
		L51.046,155.527z"/>
	<path fill="#3B4042" d="M78.697,148.416v-5.109h10.57v5.109H78.697L78.697,148.416z"/>
	<path fill="#3B4042" d="M92.235,155.527v-26.666h5.667v26.666H92.235z"/>
	<path fill="#3B4042" d="M107.286,142.104l-4.884-0.838c0.55-1.865,1.494-3.25,2.834-4.145c1.342-0.896,3.332-1.348,5.976-1.348
		c2.399,0,4.188,0.271,5.361,0.811c1.175,0.539,2,1.227,2.479,2.057c0.479,0.83,0.718,2.354,0.718,4.574l-0.058,5.967
		c0,1.697,0.086,2.949,0.259,3.756c0.172,0.809,0.494,1.67,0.967,2.592h-5.321c-0.142-0.34-0.313-0.842-0.519-1.51
		c-0.09-0.303-0.152-0.502-0.19-0.6c-0.921,0.85-1.902,1.484-2.948,1.908c-1.047,0.426-2.164,0.639-3.354,0.639
		c-2.094,0-3.741-0.539-4.948-1.619c-1.206-1.08-1.812-2.443-1.812-4.094c0-1.092,0.274-2.064,0.824-2.92
		c0.548-0.854,1.316-1.51,2.307-1.965c0.991-0.455,2.416-0.854,4.28-1.189c2.515-0.449,4.257-0.867,5.228-1.256v-0.51
		c0-0.982-0.256-1.686-0.766-2.104c-0.511-0.418-1.475-0.627-2.892-0.627c-0.958,0-1.704,0.18-2.24,0.537
		C108.052,140.578,107.618,141.207,107.286,142.104z M114.484,146.252c-0.688,0.219-1.779,0.479-3.272,0.781
		s-2.471,0.602-2.93,0.893c-0.702,0.473-1.056,1.072-1.056,1.801c0,0.717,0.281,1.334,0.844,1.855
		c0.563,0.52,1.275,0.781,2.146,0.781c0.972,0,1.896-0.305,2.777-0.908c0.649-0.461,1.077-1.025,1.28-1.691
		c0.143-0.438,0.211-1.268,0.211-2.492V146.252L114.484,146.252z"/>
	<path fill="#3B4042" d="M129.098,142.104l-4.884-0.838c0.55-1.865,1.494-3.25,2.834-4.145c1.343-0.896,3.332-1.348,5.976-1.348
		c2.399,0,4.188,0.271,5.36,0.811c1.177,0.539,2.001,1.227,2.479,2.057c0.479,0.83,0.719,2.354,0.719,4.574l-0.059,5.967
		c0,1.697,0.086,2.949,0.259,3.756c0.173,0.809,0.493,1.67,0.968,2.592h-5.323c-0.141-0.34-0.313-0.842-0.517-1.51
		c-0.092-0.303-0.153-0.502-0.192-0.6c-0.919,0.85-1.901,1.484-2.946,1.908c-1.047,0.426-2.164,0.639-3.354,0.639
		c-2.095,0-3.743-0.539-4.95-1.619c-1.206-1.08-1.81-2.443-1.81-4.094c0-1.092,0.273-2.064,0.822-2.92
		c0.549-0.854,1.317-1.51,2.309-1.965c0.988-0.455,2.416-0.854,4.279-1.189c2.516-0.449,4.258-0.867,5.229-1.256v-0.51
		c0-0.982-0.256-1.686-0.768-2.104c-0.51-0.418-1.475-0.627-2.891-0.627c-0.959,0-1.705,0.18-2.24,0.537
		C129.861,140.578,129.43,141.207,129.098,142.104z M136.297,146.252c-0.688,0.219-1.779,0.479-3.273,0.781
		c-1.492,0.305-2.472,0.602-2.931,0.893c-0.7,0.473-1.054,1.072-1.054,1.801c0,0.717,0.279,1.334,0.843,1.855
		c0.563,0.52,1.275,0.781,2.146,0.781c0.972,0,1.896-0.305,2.777-0.908c0.649-0.461,1.077-1.025,1.281-1.691
		c0.143-0.438,0.211-1.268,0.211-2.492V146.252L136.297,146.252z"/>
	<path fill="#3B4042" d="M145.488,146.852l5.516-0.508c0.332,1.758,1.006,3.049,2.021,3.873s2.385,1.236,4.106,1.236
		c1.825,0,3.201-0.365,4.127-1.102c0.927-0.732,1.39-1.592,1.39-2.574c0-0.631-0.194-1.166-0.584-1.607
		c-0.392-0.443-1.069-0.828-2.039-1.154c-0.664-0.219-2.178-0.605-4.539-1.164c-3.039-0.717-5.17-1.596-6.396-2.639
		c-1.724-1.467-2.585-3.256-2.585-5.365c0-1.357,0.405-2.629,1.216-3.813c0.813-1.184,1.979-2.082,3.506-2.701
		c1.525-0.617,3.366-0.928,5.523-0.928c3.521,0,6.176,0.732,7.956,2.201c1.78,1.467,2.716,3.426,2.806,5.875l-5.668,0.234
		c-0.242-1.369-0.764-2.354-1.562-2.955c-0.798-0.6-1.994-0.9-3.591-0.9c-1.646,0-2.938,0.322-3.868,0.967
		c-0.601,0.41-0.898,0.963-0.898,1.654c0,0.629,0.28,1.17,0.843,1.617c0.715,0.57,2.45,1.164,5.209,1.783
		c2.758,0.617,4.797,1.258,6.117,1.918c1.321,0.662,2.354,1.564,3.104,2.711c0.746,1.146,1.119,2.564,1.119,4.246
		c0,1.529-0.445,2.959-1.34,4.293s-2.158,2.326-3.791,2.977c-1.636,0.648-3.672,0.973-6.109,0.973c-3.549,0-6.273-0.777-8.176-2.336
		C146.996,152.104,145.857,149.836,145.488,146.852z"/>
</g>
<ellipse fill="#78A1BB" cx="155.13" cy="59.71" rx="23.034" ry="21.392"/>
<ellipse fill="#78A1BB" cx="99.174" cy="43.153" rx="45.945" ry="43.153"/>
<ellipse fill="#78A1BB" cx="23.296" cy="73.671" rx="14.565" ry="14.142"/>
<ellipse fill="#78A1BB" cx="45.61" cy="53.345" rx="29.91" ry="29.989"/>
<path fill="#78A1BB" d="M80.711,87.904c-1.438,8.639-13.547,13.918-27.046,11.795c-13.5-2.121-23.277-10.848-21.838-19.484
	c1.438-8.638,13.547-13.92,27.046-11.796C72.373,70.542,82.149,79.266,80.711,87.904z"/>
<path fill="#78A1BB" d="M133.111,77.444c-0.172,14.583-14.301,26.253-31.553,26.06c-17.25-0.191-31.097-12.17-30.925-26.753
	c0.171-14.586,14.297-26.254,31.55-26.063C119.438,50.88,133.282,62.858,133.111,77.444z"/>
<path fill="#3A3F41" d="M40.276,71.847l6.389-3.08c-0.399-1.726-1.006-3.406-1.808-4.994l-6.971,1.468
	c-0.971-1.502-2.209-2.86-3.684-3.994l2.278-6.561c-0.761-0.468-1.554-0.907-2.384-1.295c-0.834-0.388-1.679-0.715-2.532-1
	l-3.86,5.821c-1.832-0.407-3.697-0.501-5.513-0.297l-3.169-6.203c-1.779,0.384-3.508,0.972-5.144,1.749l1.512,6.767
	c-1.55,0.94-2.956,2.14-4.131,3.574c-2.378-0.778-4.717-1.542-6.756-2.21c-0.486,0.742-0.941,1.514-1.34,2.332
	c-0.4,0.798-0.733,1.612-1.027,2.434c1.81,1.13,3.89,2.43,5.998,3.744c-0.43,1.79-0.523,3.608-0.313,5.379
	c-2.247,1.082-4.461,2.146-6.393,3.08c0.397,1.724,1,3.396,1.8,4.986c2.105-0.443,4.516-0.953,6.965-1.469
	c0.976,1.516,2.218,2.883,3.708,4.029l-2.28,6.557c0.762,0.469,1.551,0.902,2.388,1.291c0.827,0.389,1.67,0.717,2.519,1.004
	c1.165-1.758,2.498-3.777,3.859-5.828c1.847,0.418,3.724,0.508,5.555,0.301l3.164,6.199c1.778-0.389,3.502-0.973,5.141-1.752
	c-0.459-2.041-0.983-4.385-1.514-6.768c1.55-0.943,2.956-2.152,4.13-3.594l6.757,2.207c0.48-0.73,0.923-1.494,1.32-2.299
	c0.399-0.813,0.743-1.639,1.036-2.469l-5.998-3.75C40.397,75.426,40.492,73.608,40.276,71.847z M30.901,76.874
	c-1.823,3.673-6.363,5.22-10.143,3.453c-3.784-1.766-5.376-6.175-3.557-9.849c1.817-3.674,6.361-5.22,10.144-3.452
	C31.127,68.789,32.717,73.2,30.901,76.874z"/>
<path fill="#78A1BB" d="M155.298,84.404c1.734,6.34-7.76,14.262-21.198,17.691c-13.438,3.428-25.733,1.066-27.47-5.275
	c-1.733-6.34,7.757-14.264,21.196-17.691C141.266,75.7,153.564,78.06,155.298,84.404z"/>
<path fill="#3A3F41" d="M179.502,68.277l11.359,0.274c0.713-2.734,1.098-5.55,1.139-8.379L181.01,57.2
	c-0.264-2.832-1.014-5.65-2.267-8.324l8.104-7.633c-0.731-1.214-1.533-2.41-2.425-3.561c-0.896-1.154-1.853-2.229-2.853-3.251
	l-9.805,5.44c-2.298-1.904-4.877-3.387-7.607-4.416l0.102-11.076c-2.81-0.745-5.699-1.164-8.603-1.253l-2.875,10.67
	c-2.898,0.208-5.787,0.888-8.521,2.065c-2.8-2.825-5.557-5.601-7.955-8.024c-1.24,0.698-2.461,1.46-3.634,2.329
	c-1.161,0.839-2.239,1.749-3.266,2.702c1.731,2.908,3.721,6.258,5.739,9.645c-1.941,2.217-3.422,4.723-4.439,7.385
	c-3.994-0.098-7.93-0.192-11.365-0.276c-0.714,2.727-1.101,5.532-1.146,8.363c3.32,0.894,7.121,1.923,10.984,2.967
	c0.26,2.853,1.008,5.688,2.273,8.391l-8.104,7.623c0.733,1.22,1.53,2.406,2.433,3.562c0.885,1.146,1.842,2.223,2.832,3.246
	c2.958-1.645,6.351-3.537,9.807-5.451c2.313,1.931,4.913,3.414,7.666,4.449l-0.108,11.066c2.813,0.74,5.695,1.162,8.604,1.246
	c0.861-3.225,1.857-6.918,2.872-10.676c2.901-0.211,5.795-0.902,8.532-2.09l7.959,8.021c1.225-0.689,2.42-1.449,3.58-2.293
	c1.172-0.863,2.273-1.783,3.305-2.746l-5.732-9.654C177.018,73.432,178.499,70.929,179.502,68.277z M162.455,68.599
	c-5.316,3.877-12.911,2.775-16.969-2.467c-4.062-5.242-3.049-12.635,2.261-16.516c5.31-3.882,12.909-2.776,16.97,2.466
	C168.777,57.319,167.76,64.715,162.455,68.599z"/>
<path fill="#3A3F41" d="M112.247,80.715l5.471-6.76c-1.394-1.725-2.991-3.291-4.763-4.654l-7.005,5.266
	c-1.911-1.179-4.043-2.056-6.317-2.559l-1.04-8.526c-1.108-0.128-2.239-0.208-3.382-0.212c-1.146-0.001-2.273,0.07-3.386,0.196
	l-1.135,8.519c-2.275,0.496-4.416,1.36-6.34,2.531l-6.949-5.298c-1.783,1.353-3.398,2.912-4.806,4.63l5.4,6.785
	c-1.221,1.857-2.139,3.932-2.669,6.146c-3.092,0.363-6.131,0.725-8.782,1.035c-0.138,1.082-0.225,2.186-0.224,3.307
	c-0.011,1.1,0.061,2.184,0.183,3.256c2.646,0.324,5.689,0.703,8.772,1.078c0.497,2.227,1.389,4.309,2.597,6.184
	c-1.926,2.377-3.823,4.721-5.477,6.766c1.39,1.723,2.982,3.285,4.75,4.648c2.114-1.592,4.537-3.412,6.999-5.262
	c1.923,1.188,4.065,2.076,6.361,2.586l1.037,8.52c1.114,0.131,2.235,0.209,3.385,0.207c1.139,0.004,2.265-0.066,3.373-0.186
	c0.341-2.57,0.728-5.521,1.13-8.527c2.301-0.488,4.45-1.367,6.387-2.547l6.945,5.297c1.778-1.357,3.391-2.906,4.799-4.633
	c-1.633-2.045-3.506-4.396-5.403-6.785c1.22-1.863,2.132-3.945,2.659-6.17l8.779-1.037c0.139-1.068,0.215-2.152,0.223-3.258
	c0-1.117-0.065-2.223-0.193-3.303l-8.775-1.082C114.346,84.66,113.454,82.578,112.247,80.715z M104.497,91.213
	c-0.026,5.059-4.271,9.146-9.473,9.129c-5.207-0.012-9.406-4.119-9.382-9.176c0.022-5.057,4.268-9.146,9.474-9.131
	C100.318,82.045,104.52,86.156,104.497,91.213z"/>
<g>
</g>
<g>
</g>
<g>
</g>
<g>
</g>
<g>
</g>
<g>
</g>
</svg>
