<?xml version="1.0" encoding="utf-8"?>
<!-- Generator: Adobe Illustrator 16.0.0, SVG Export Plug-In . SVG Version: 6.00 Build 0)  -->
<!DOCTYPE svg PUBLIC "-//W3C//DTD SVG 1.1//EN" "http://www.w3.org/Graphics/SVG/1.1/DTD/svg11.dtd">
<svg version="1.1" id="Layer_1" xmlns="http://www.w3.org/2000/svg" xmlns:xlink="http://www.w3.org/1999/xlink" x="0px" y="0px"
	 width="216px" height="38px" viewBox="0 0 216 38" enable-background="new 0 0 216 38" xml:space="preserve">
<g>
	<path fill="#3C4143" d="M94.509,9.045h4.184v10.984c0,1.743,0.054,2.873,0.157,3.394c0.178,0.827,0.604,1.49,1.279,1.994
		c0.675,0.5,1.596,0.751,2.766,0.751c1.188,0,2.081-0.232,2.685-0.709c0.602-0.476,0.966-1.057,1.09-1.749
		c0.121-0.694,0.182-1.846,0.182-3.448V9.045h4.188V19.7c0,2.437-0.115,4.151-0.342,5.157c-0.227,1.007-0.645,1.857-1.251,2.548
		c-0.607,0.69-1.421,1.245-2.44,1.652c-1.018,0.41-2.348,0.614-3.985,0.614c-1.979,0-3.482-0.221-4.503-0.666
		c-1.022-0.449-1.831-1.03-2.424-1.748c-0.594-0.71-0.987-1.465-1.173-2.246c-0.274-1.164-0.411-2.873-0.411-5.146L94.509,9.045
		L94.509,9.045L94.509,9.045z"/>
	<path fill="#3C4143" d="M115.462,29.328V9.045h4.187v7.979h8.199V9.045h4.187v20.283h-4.187V20.46h-8.199v8.868H115.462
		L115.462,29.328z"/>
	<path fill="#3C4143" d="M135.877,23.919v-3.884h7.805v3.884H135.877L135.877,23.919z"/>
	<path fill="#3C4143" d="M145.874,29.328V9.045h4.183v20.283H145.874z"/>
	<path fill="#3C4143" d="M156.988,19.122l-3.608-0.643c0.408-1.417,1.104-2.466,2.098-3.145c0.985-0.688,2.458-1.026,4.407-1.026
		c1.771,0,3.092,0.207,3.962,0.611c0.861,0.415,1.476,0.935,1.825,1.568c0.357,0.626,0.529,1.79,0.529,3.476l-0.036,4.537
		c0,1.293,0.061,2.244,0.19,2.859c0.12,0.616,0.363,1.274,0.713,1.969h-3.929c-0.102-0.254-0.23-0.635-0.383-1.146
		c-0.07-0.229-0.115-0.379-0.145-0.455c-0.675,0.643-1.404,1.127-2.173,1.453c-0.778,0.321-1.603,0.477-2.479,0.477
		c-1.548,0-2.759-0.404-3.653-1.229c-0.889-0.817-1.335-1.857-1.335-3.112c0-0.829,0.201-1.572,0.607-2.219
		c0.403-0.653,0.969-1.146,1.698-1.497c0.737-0.343,1.788-0.646,3.162-0.903c1.86-0.346,3.144-0.659,3.863-0.955v-0.39
		c0-0.744-0.191-1.279-0.57-1.6c-0.373-0.313-1.085-0.48-2.133-0.48c-0.708,0-1.257,0.142-1.656,0.416
		C157.553,17.957,157.231,18.433,156.988,19.122z M162.304,22.274c-0.51,0.168-1.315,0.359-2.419,0.595
		c-1.102,0.23-1.819,0.458-2.162,0.674c-0.521,0.36-0.779,0.821-0.779,1.372c0,0.544,0.206,1.016,0.623,1.409
		c0.412,0.399,0.943,0.598,1.58,0.598c0.725,0,1.403-0.232,2.051-0.693c0.482-0.347,0.797-0.776,0.95-1.282
		c0.1-0.337,0.156-0.967,0.156-1.895V22.274L162.304,22.274z"/>
	<path fill="#3C4143" d="M173.095,19.122l-3.61-0.643c0.411-1.417,1.106-2.466,2.093-3.145c0.992-0.688,2.458-1.026,4.413-1.026
		c1.771,0,3.091,0.207,3.956,0.611c0.868,0.415,1.478,0.935,1.829,1.568c0.354,0.626,0.53,1.79,0.53,3.476l-0.039,4.537
		c0,1.293,0.065,2.244,0.188,2.859c0.134,0.616,0.369,1.274,0.717,1.969h-3.932c-0.103-0.254-0.229-0.635-0.376-1.146
		c-0.069-0.229-0.114-0.379-0.144-0.455c-0.682,0.643-1.402,1.127-2.177,1.453c-0.775,0.321-1.6,0.477-2.479,0.477
		c-1.547,0-2.761-0.404-3.648-1.229c-0.896-0.817-1.343-1.857-1.343-3.112c0-0.829,0.207-1.572,0.609-2.219
		c0.406-0.653,0.971-1.146,1.703-1.497c0.732-0.343,1.786-0.646,3.162-0.903c1.853-0.346,3.139-0.659,3.855-0.955v-0.39
		c0-0.744-0.187-1.279-0.563-1.6c-0.377-0.313-1.092-0.48-2.137-0.48c-0.703,0-1.254,0.142-1.653,0.416
		C173.652,17.957,173.34,18.433,173.095,19.122z M178.404,22.274c-0.505,0.168-1.308,0.359-2.414,0.595
		c-1.102,0.23-1.828,0.458-2.164,0.674c-0.517,0.36-0.779,0.821-0.779,1.372c0,0.544,0.207,1.016,0.626,1.409
		c0.41,0.399,0.934,0.598,1.58,0.598c0.716,0,1.396-0.232,2.053-0.693c0.479-0.347,0.792-0.776,0.946-1.282
		c0.103-0.337,0.15-0.967,0.15-1.895v-0.777H178.404z"/>
	<path fill="#3C4143" d="M185.194,22.729l4.076-0.381c0.239,1.332,0.739,2.314,1.491,2.939c0.747,0.627,1.757,0.941,3.031,0.941
		c1.346,0,2.364-0.278,3.046-0.835c0.683-0.56,1.025-1.214,1.025-1.96c0-0.479-0.144-0.885-0.432-1.22
		c-0.29-0.342-0.792-0.632-1.507-0.88c-0.485-0.17-1.605-0.46-3.347-0.89c-2.243-0.542-3.821-1.215-4.722-2.008
		c-1.273-1.113-1.911-2.473-1.911-4.075c0-1.033,0.299-2.003,0.898-2.903c0.601-0.9,1.457-1.583,2.588-2.054
		c1.122-0.469,2.484-0.702,4.078-0.702c2.602,0,4.56,0.551,5.875,1.669c1.313,1.118,2.004,2.609,2.066,4.469l-4.182,0.178
		c-0.181-1.043-0.565-1.785-1.155-2.246c-0.587-0.455-1.471-0.682-2.648-0.682c-1.213,0-2.17,0.242-2.857,0.733
		c-0.442,0.314-0.665,0.732-0.665,1.26c0,0.476,0.207,0.885,0.626,1.229c0.523,0.435,1.807,0.886,3.843,1.356
		c2.037,0.468,3.544,0.96,4.517,1.46c0.976,0.506,1.743,1.189,2.291,2.063c0.554,0.87,0.83,1.952,0.83,3.228
		c0,1.163-0.334,2.247-0.991,3.266c-0.658,1.02-1.596,1.765-2.799,2.266c-1.207,0.492-2.707,0.734-4.512,0.734
		c-2.619,0-4.634-0.589-6.036-1.771C186.309,26.724,185.465,24.995,185.194,22.729z"/>
</g>
<g>
	<ellipse fill="#78A1BB" cx="63.665" cy="19.108" rx="7.395" ry="6.866"/>
	<ellipse fill="#78A1BB" cx="45.704" cy="13.794" rx="14.748" ry="13.852"/>
	<ellipse fill="#78A1BB" cx="21.349" cy="23.589" rx="4.675" ry="4.539"/>
	<ellipse fill="#78A1BB" cx="28.51" cy="17.064" rx="9.601" ry="9.626"/>
	<path fill="#78A1BB" d="M39.778,28.158c-0.461,2.772-4.348,4.467-8.681,3.786c-4.333-0.682-7.472-3.482-7.01-6.256
		c0.462-2.77,4.35-4.466,8.681-3.786C37.101,22.585,40.239,25.386,39.778,28.158z"/>
	<path fill="#78A1BB" d="M56.597,24.801c-0.055,4.681-4.59,8.428-10.128,8.364c-5.538-0.061-9.982-3.908-9.926-8.588
		c0.054-4.681,4.589-8.425,10.127-8.365C52.208,16.274,56.652,20.118,56.597,24.801z"/>
	<path fill="#3B4042" d="M26.798,23.004l2.051-0.988c-0.127-0.556-0.322-1.096-0.58-1.603l-2.238,0.47
		c-0.312-0.481-0.709-0.918-1.183-1.281l0.731-2.107c-0.245-0.15-0.499-0.291-0.766-0.416c-0.268-0.125-0.539-0.229-0.813-0.321
		l-1.239,1.868c-0.587-0.129-1.187-0.16-1.769-0.094l-1.018-1.991c-0.57,0.124-1.125,0.313-1.651,0.562l0.485,2.171
		c-0.497,0.301-0.949,0.687-1.326,1.146c-0.764-0.248-1.515-0.494-2.168-0.708c-0.156,0.237-0.302,0.486-0.43,0.746
		c-0.128,0.257-0.236,0.521-0.331,0.782c0.582,0.362,1.25,0.78,1.925,1.202c-0.139,0.574-0.169,1.156-0.101,1.726
		c-0.721,0.349-1.432,0.689-2.052,0.989c0.127,0.554,0.321,1.092,0.578,1.603c0.675-0.146,1.45-0.309,2.235-0.474
		c0.313,0.485,0.712,0.925,1.189,1.292l-0.732,2.106c0.246,0.15,0.499,0.291,0.767,0.416c0.266,0.124,0.536,0.229,0.809,0.32
		c0.374-0.563,0.802-1.213,1.24-1.869c0.591,0.134,1.194,0.162,1.783,0.097l1.016,1.987c0.571-0.122,1.124-0.311,1.65-0.559
		c-0.147-0.656-0.315-1.409-0.486-2.173c0.498-0.304,0.949-0.691,1.325-1.154l2.168,0.708c0.154-0.233,0.297-0.479,0.425-0.737
		c0.127-0.261,0.237-0.526,0.332-0.793L26.7,24.726C26.837,24.154,26.869,23.569,26.798,23.004z M23.789,24.617
		c-0.584,1.179-2.043,1.677-3.255,1.109c-1.215-0.567-1.726-1.983-1.142-3.162c0.583-1.18,2.042-1.676,3.257-1.108
		C23.863,22.022,24.372,23.438,23.789,24.617z"/>
	<path fill="#78A1BB" d="M63.718,27.035c0.557,2.034-2.491,4.577-6.804,5.678c-4.313,1.102-8.261,0.344-8.818-1.692
		c-0.556-2.034,2.491-4.578,6.805-5.68C59.215,24.239,63.163,24.998,63.718,27.035z"/>
	<path fill="#3B4042" d="M71.488,21.858l3.646,0.088c0.229-0.878,0.352-1.781,0.365-2.691l-3.528-0.953
		c-0.084-0.91-0.325-1.814-0.728-2.674l2.603-2.45c-0.236-0.39-0.492-0.773-0.78-1.142c-0.287-0.371-0.594-0.716-0.915-1.044
		l-3.147,1.746c-0.738-0.611-1.566-1.087-2.443-1.417l0.032-3.556c-0.901-0.239-1.829-0.373-2.761-0.401l-0.922,3.424
		c-0.931,0.068-1.857,0.285-2.734,0.663c-0.9-0.907-1.784-1.798-2.554-2.576c-0.398,0.224-0.79,0.469-1.167,0.748
		c-0.374,0.269-0.719,0.562-1.049,0.868c0.557,0.934,1.194,2.008,1.843,3.097c-0.623,0.712-1.098,1.515-1.425,2.37
		c-1.283-0.031-2.545-0.062-3.647-0.089c-0.23,0.874-0.354,1.776-0.368,2.684c1.066,0.286,2.285,0.619,3.526,0.954
		c0.083,0.914,0.323,1.825,0.729,2.691l-2.602,2.449c0.236,0.392,0.491,0.77,0.781,1.141c0.285,0.368,0.591,0.714,0.91,1.043
		c0.95-0.53,2.039-1.136,3.148-1.749c0.743,0.618,1.577,1.095,2.46,1.429l-0.035,3.552c0.903,0.237,1.829,0.371,2.762,0.399
		c0.275-1.036,0.596-2.222,0.921-3.428c0.932-0.067,1.86-0.289,2.74-0.67l2.554,2.573c0.394-0.22,0.778-0.465,1.15-0.735
		c0.375-0.275,0.729-0.571,1.06-0.881l-1.84-3.097C70.691,23.514,71.167,22.709,71.488,21.858z M66.016,21.962
		c-1.706,1.243-4.144,0.89-5.447-0.793c-1.304-1.682-0.979-4.055,0.725-5.3c1.705-1.248,4.144-0.893,5.448,0.791
		C68.046,18.34,67.719,20.715,66.016,21.962z"/>
	<path fill="#3B4042" d="M49.9,25.851l1.756-2.17c-0.447-0.553-0.961-1.058-1.529-1.493l-2.249,1.69
		c-0.613-0.381-1.297-0.66-2.027-0.821l-0.335-2.738c-0.355-0.041-0.718-0.068-1.085-0.068c-0.367,0-0.729,0.023-1.087,0.063
		l-0.364,2.733c-0.73,0.158-1.417,0.438-2.035,0.813l-2.23-1.7c-0.573,0.434-1.09,0.934-1.542,1.486l1.733,2.179
		c-0.392,0.595-0.687,1.261-0.856,1.971c-0.993,0.116-1.968,0.231-2.819,0.332c-0.044,0.349-0.072,0.702-0.072,1.063
		c-0.003,0.354,0.021,0.701,0.059,1.045c0.849,0.104,1.827,0.226,2.816,0.348c0.159,0.714,0.445,1.383,0.833,1.983
		c-0.618,0.763-1.227,1.515-1.758,2.172c0.446,0.553,0.958,1.054,1.525,1.493c0.679-0.512,1.457-1.098,2.247-1.69
		c0.618,0.382,1.305,0.666,2.042,0.832l0.333,2.732c0.357,0.042,0.717,0.067,1.086,0.067c0.366,0,0.727-0.021,1.082-0.059
		c0.11-0.825,0.234-1.774,0.362-2.737c0.739-0.157,1.429-0.44,2.05-0.818l2.229,1.7c0.57-0.437,1.088-0.935,1.541-1.486
		c-0.524-0.658-1.125-1.412-1.735-2.179c0.393-0.599,0.685-1.267,0.854-1.981l2.818-0.334c0.045-0.34,0.068-0.691,0.072-1.046
		c0-0.358-0.021-0.715-0.063-1.059l-2.817-0.348C50.574,27.117,50.287,26.449,49.9,25.851z M47.412,29.22
		c-0.008,1.625-1.37,2.936-3.04,2.932c-1.672-0.006-3.02-1.323-3.012-2.946c0.007-1.623,1.37-2.936,3.042-2.932
		C46.07,26.277,47.42,27.597,47.412,29.22z"/>
</g>
<g>
	<rect fill="none" width="216" height="38"/>
	<line fill="none" x1="0" y1="35.625" x2="216" y2="35.625"/>
	<line fill="none" x1="0" y1="33.25" x2="216" y2="33.25"/>
	<line fill="none" x1="0" y1="30.875" x2="216" y2="30.875"/>
	<line fill="none" x1="0" y1="28.5" x2="216" y2="28.5"/>
	<line fill="none" x1="0" y1="26.125" x2="216" y2="26.125"/>
	<line fill="none" x1="0" y1="23.75" x2="216" y2="23.75"/>
	<line fill="none" x1="0" y1="21.375" x2="216" y2="21.375"/>
	<line fill="none" x1="0" y1="19" x2="216" y2="19"/>
	<line fill="none" x1="0" y1="16.625" x2="216" y2="16.625"/>
	<line fill="none" x1="0" y1="14.25" x2="216" y2="14.25"/>
	<line fill="none" x1="0" y1="11.875" x2="216" y2="11.875"/>
	<line fill="none" x1="0" y1="9.5" x2="216" y2="9.5"/>
	<line fill="none" x1="0" y1="7.125" x2="216" y2="7.125"/>
	<line fill="none" x1="0" y1="4.75" x2="216" y2="4.75"/>
	<line fill="none" x1="0" y1="2.375" x2="216" y2="2.375"/>
	<line fill="none" x1="209.039" y1="0" x2="209.039" y2="38"/>
	<line fill="none" x1="202.078" y1="0" x2="202.078" y2="38"/>
	<line fill="none" x1="195.117" y1="0" x2="195.117" y2="38"/>
	<line fill="none" x1="188.104" y1="0" x2="188.104" y2="38"/>
	<line fill="none" x1="181.143" y1="0" x2="181.143" y2="38"/>
	<line fill="none" x1="174.182" y1="0" x2="174.182" y2="38"/>
	<line fill="none" x1="167.221" y1="0" x2="167.221" y2="38"/>
	<line fill="none" x1="160.26" y1="0" x2="160.26" y2="38"/>
	<line fill="none" x1="153.299" y1="0" x2="153.299" y2="38"/>
	<line fill="none" x1="146.338" y1="0" x2="146.338" y2="38"/>
	<line fill="none" x1="139.377" y1="0" x2="139.377" y2="38"/>
	<line fill="none" x1="132.363" y1="0" x2="132.363" y2="38"/>
	<line fill="none" x1="125.402" y1="0" x2="125.402" y2="38"/>
	<line fill="none" x1="118.441" y1="0" x2="118.441" y2="38"/>
	<line fill="none" x1="111.48" y1="0" x2="111.48" y2="38"/>
	<line fill="none" x1="104.52" y1="0" x2="104.52" y2="38"/>
	<line fill="none" x1="97.559" y1="0" x2="97.559" y2="38"/>
	<line fill="none" x1="90.598" y1="0" x2="90.598" y2="38"/>
	<line fill="none" x1="83.637" y1="0" x2="83.637" y2="38"/>
	<line fill="none" x1="76.623" y1="0" x2="76.623" y2="38"/>
	<line fill="none" x1="69.662" y1="0" x2="69.662" y2="38"/>
	<line fill="none" x1="62.701" y1="0" x2="62.701" y2="38"/>
	<line fill="none" x1="55.74" y1="0" x2="55.74" y2="38"/>
	<line fill="none" x1="48.779" y1="0" x2="48.779" y2="38"/>
	<line fill="none" x1="41.818" y1="0" x2="41.818" y2="38"/>
	<line fill="none" x1="34.857" y1="0" x2="34.857" y2="38"/>
	<line fill="none" x1="27.896" y1="0" x2="27.896" y2="38"/>
	<line fill="none" x1="20.883" y1="0" x2="20.883" y2="38"/>
	<line fill="none" x1="13.922" y1="0" x2="13.922" y2="38"/>
	<line fill="none" x1="6.961" y1="0" x2="6.961" y2="38"/>
</g>
<g>
</g>
<g>
</g>
<g>
</g>
<g>
</g>
<g>
</g>
<g>
</g>
</svg>
