<?xml version="1.0" encoding="UTF-8"?>
<svg id="Layer_1" data-name="Layer 1" xmlns="http://www.w3.org/2000/svg" viewBox="0 0 572.11 448.3">
  <defs>
    <style>
      .cls-1 {
        fill: #3264ff;
        stroke-width: 0px;
      }
    </style>
  </defs>
  <g>
    <path class="cls-1" d="m31.81,252.54l-10.28-19.05h-.37l-.15,71.33-10.07-.02.18-85.7,11.91.03,31.2,52.37,10.27,19.05h.37s.15-71.33.15-71.33l10.07.02-.18,85.7-11.91-.02-31.2-52.37Z"/>
    <path class="cls-1" d="m116.54,306.49c-4.26,0-8.14-.8-11.66-2.36-3.52-1.56-6.52-3.8-9.01-6.71-2.49-2.91-4.43-6.39-5.81-10.45-1.38-4.06-2.07-8.62-2.06-13.69.01-4.99.72-9.53,2.12-13.62,1.4-4.09,3.35-7.58,5.85-10.49,2.5-2.9,5.52-5.12,9.04-6.67s7.41-2.32,11.67-2.31,8.12.8,11.6,2.36c3.48,1.56,6.48,3.8,9.01,6.71,2.53,2.91,4.49,6.42,5.87,10.51,1.38,4.1,2.07,8.64,2.06,13.63-.01,5.08-.72,9.64-2.12,13.69-1.4,4.05-3.37,7.52-5.91,10.42-2.54,2.9-5.56,5.13-9.04,6.67-3.48,1.55-7.35,2.32-11.61,2.31Zm.02-8.72c5.32.01,9.66-1.62,13.02-4.88,3.36-3.27,5.05-8.26,5.07-14.97l.02-9.09c.01-6.71-1.65-11.71-5-14.99-3.35-3.28-7.68-4.92-13-4.94s-9.66,1.62-13.02,4.88c-3.37,3.27-5.05,8.26-5.07,14.97l-.02,9.09c-.01,6.71,1.65,11.71,5,14.99,3.35,3.28,7.68,4.93,13.01,4.94Z"/>
    <path class="cls-1" d="m156.68,305.1l.13-63.35,9.82.02-.02,11.67h.61c1.15-3.02,3.2-5.72,6.16-8.09,2.95-2.37,7.01-3.55,12.16-3.54h3.81s-.02,9.83-.02,9.83h-5.77c-5.32-.02-9.48.97-12.47,2.97-2.99,2-4.49,4.51-4.5,7.54l-.09,42.97-9.82-.02Z"/>
    <path class="cls-1" d="m197.11,241.83l9.57.02,6.7,27.39,6.69,27.76h.25l7.79-27.73,8.04-27.36,8.72.02,8.17,27.4,7.8,27.77h.25l6.57-27.74,6.93-27.36,9.21.02-16.95,63.32-12.15-.02-8.77-30.47-5.49-19.29h-.25s-5.44,19.26-5.44,19.26l-8.9,30.43-11.91-.02-16.81-63.39Z"/>
    <path class="cls-1" d="m318.51,306.92c-4.34,0-8.25-.8-11.72-2.36-3.48-1.56-6.46-3.8-8.95-6.71-2.49-2.91-4.41-6.39-5.75-10.45-1.34-4.06-2.01-8.62-2-13.7,0-4.99.7-9.53,2.05-13.62s3.29-7.58,5.79-10.49c2.5-2.9,5.49-5.13,8.97-6.67s7.39-2.32,11.73-2.31c4.25,0,8.06.79,11.41,2.35,3.35,1.56,6.21,3.7,8.58,6.44s4.18,5.98,5.44,9.74c1.26,3.75,1.89,7.87,1.88,12.36v4.65s-45.56-.1-45.56-.1v2.95c-.01,2.7.41,5.22,1.26,7.55.85,2.34,2.08,4.36,3.67,6.08,1.59,1.72,3.56,3.08,5.88,4.06,2.33.99,4.97,1.48,7.92,1.49,4.01,0,7.51-.93,10.5-2.8,2.99-1.88,5.31-4.57,6.95-8.09l6.99,5.08c-2.06,4.36-5.25,7.88-9.6,10.55-4.35,2.66-9.51,3.99-15.48,3.98Zm.12-58.07c-2.7,0-5.16.46-7.37,1.39-2.21.93-4.12,2.25-5.72,3.95-1.6,1.71-2.85,3.72-3.76,6.03-.91,2.32-1.36,4.86-1.37,7.63v.85s34.99.07,34.99.07v-1.34c.01-5.61-1.51-10.11-4.57-13.49-3.06-3.38-7.13-5.08-12.21-5.09Z"/>
    <path class="cls-1" d="m412.73,312.7c-.01,6.53-2.58,11.31-7.7,14.36s-12.8,4.56-23.03,4.54c-9.9-.02-17.02-1.39-21.35-4.09-4.33-2.71-6.49-6.56-6.48-11.54,0-3.44.91-6.11,2.72-8.03,1.8-1.92,4.26-3.32,7.37-4.22v-1.35c-3.76-1.8-5.63-4.74-5.62-8.81,0-3.18,1.03-5.6,3.08-7.27,2.05-1.67,4.67-2.9,7.87-3.71v-.49c-3.76-1.81-6.68-4.41-8.76-7.78s-3.12-7.27-3.11-11.71c0-3.2.59-6.16,1.74-8.86s2.77-5.02,4.86-6.95c2.09-1.93,4.59-3.42,7.5-4.48,2.9-1.06,6.16-1.59,9.76-1.58,4.5,0,8.51.84,12.03,2.48v-1.11c0-2.48.58-4.54,1.73-6.15,1.15-1.62,3.03-2.43,5.65-2.42l9.45.02-.02,8.72-12.03-.03v4.06c2.28,1.98,4.05,4.34,5.31,7.09,1.26,2.75,1.89,5.85,1.89,9.3,0,3.2-.59,6.15-1.74,8.86s-2.77,5.02-4.86,6.95c-2.09,1.92-4.61,3.42-7.56,4.48s-6.23,1.59-9.83,1.58c-2.05,0-4.09-.21-6.14-.63-2.13.57-4.06,1.4-5.78,2.5-1.72,1.1-2.58,2.63-2.59,4.6,0,1.89.89,3.15,2.69,3.81,1.8.66,4.13.99,7,1l13.51.03c7.86.02,13.56,1.52,17.12,4.5,3.56,2.99,5.33,7.09,5.31,12.31Zm-9.21.65c0-2.54-.95-4.57-2.87-6.08-1.92-1.52-5.34-2.28-10.25-2.29l-21.12-.04c-3.93,1.79-5.9,4.66-5.91,8.58,0,2.78,1.03,5.16,3.12,7.13,2.08,1.97,5.62,2.96,10.61,2.97l9.09.02c5.48.01,9.74-.84,12.77-2.55,3.03-1.71,4.55-4.29,4.56-7.72Zm-21.9-36.63c4.18,0,7.49-.99,9.95-3,2.46-2.01,3.69-5.11,3.7-9.3v-3.45c.02-4.19-1.2-7.3-3.66-9.32-2.45-2.02-5.76-3.04-9.94-3.04-4.18,0-7.49.99-9.95,3-2.46,2.01-3.69,5.11-3.7,9.3v3.45c-.02,4.19,1.2,7.3,3.65,9.32,2.45,2.02,5.76,3.03,9.94,3.04Z"/>
    <path class="cls-1" d="m427.89,227.46c-2.13,0-3.66-.52-4.6-1.54s-1.41-2.36-1.4-3.99v-1.6c0-1.64.48-2.96,1.42-3.99.94-1.02,2.48-1.53,4.61-1.53,2.13,0,3.66.52,4.6,1.54.94,1.03,1.41,2.36,1.4,4v1.59c0,1.64-.48,2.97-1.42,3.99-.94,1.02-2.48,1.53-4.61,1.53Zm-4.94,14.85l9.82.02-.13,63.35-9.82-.02.13-63.35Z"/>
    <path class="cls-1" d="m496.77,305.82c-3.68,0-6.32-1-7.91-2.96-1.59-1.97-2.59-4.43-2.99-7.37h-.61c-1.4,3.92-3.7,6.86-6.89,8.82-3.2,1.96-7,2.93-11.42,2.92-6.71-.01-11.93-1.74-15.64-5.19-3.72-3.44-5.57-8.11-5.56-14.01.01-5.97,2.21-10.55,6.6-13.74s11.2-4.76,20.45-4.75l12.52.03v-6.26c.02-4.5-1.2-7.94-3.65-10.32-2.45-2.38-6.21-3.57-11.29-3.58-3.85,0-7.06.84-9.64,2.56-2.58,1.71-4.74,4-6.46,6.86l-5.88-5.54c1.73-3.44,4.48-6.35,8.24-8.76,3.77-2.4,8.52-3.6,14.25-3.59,7.69.01,13.67,1.91,17.91,5.67,4.25,3.76,6.37,9,6.35,15.69l-.07,34.79h7.24s-.02,8.73-.02,8.73h-5.53Zm-28.22-6.94c2.45,0,4.7-.27,6.75-.85,2.05-.57,3.81-1.38,5.28-2.44,1.47-1.06,2.62-2.28,3.44-3.67s1.23-2.9,1.24-4.54l.02-10.44-13.02-.03c-5.65-.01-9.76.8-12.35,2.43-2.58,1.63-3.88,4-3.88,7.11v2.58c-.01,3.11,1.11,5.53,3.36,7.25,2.25,1.72,5.29,2.59,9.14,2.6Z"/>
    <path class="cls-1" d="m513.85,305.85l.13-63.35,9.82.02-.02,10.19h.49c1.56-3.56,3.76-6.39,6.59-8.49,2.83-2.1,6.62-3.15,11.36-3.14,6.55.01,11.72,2.13,15.52,6.35,3.8,4.23,5.69,10.19,5.67,17.88l-.08,40.64-9.82-.02.08-39c.02-11.4-4.75-17.12-14.33-17.14-1.96,0-3.87.24-5.71.73-1.84.49-3.5,1.23-4.98,2.21-1.48.98-2.65,2.23-3.51,3.74-.86,1.52-1.29,3.3-1.3,5.35l-.09,44.05-9.82-.02Z"/>
    <path class="cls-1" d="m64.31,443.03l-8.54-25.31-34.62-.07-8.65,25.27-10.43-.02,30.14-85.63,13.13.03,29.78,85.76-10.8-.02Zm-25.5-76.17h-.61s-14.58,41.71-14.58,41.71l29.59.06-14.4-41.77Z"/>
    <path class="cls-1" d="m86.08,443.08l.02-8.59,12.03.03.14-68.51-12.03-.03.02-8.59,34.38.07-.02,8.59-12.03-.02-.14,68.51,12.03.02-.02,8.59-34.38-.07Z"/>
    <path class="cls-1" d="m198.41,444.79c-10.89-.02-19.35-3.74-25.39-11.17-6.04-7.42-9.05-18.33-9.02-32.74s3.08-25.47,9.16-33.19c6.07-7.72,14.55-11.57,25.44-11.55,7.2.01,13.23,1.65,18.1,4.89,4.86,3.24,8.64,7.86,11.33,13.84l-8.36,5.01c-1.71-4.42-4.32-7.97-7.84-10.64-3.51-2.66-7.93-4-13.25-4.02-3.68,0-6.98.68-9.89,2.07-2.91,1.39-5.37,3.38-7.38,5.96-2.01,2.58-3.56,5.66-4.63,9.23s-1.61,7.57-1.62,12.01l-.03,12.81c-.02,8.87,2.01,15.81,6.1,20.84,4.08,5.02,9.85,7.54,17.3,7.55,5.48.01,10.07-1.39,13.76-4.21,3.69-2.81,6.4-6.56,8.13-11.22l8.21,5.17c-2.71,6.05-6.61,10.79-11.69,14.22-5.08,3.43-11.23,5.13-18.43,5.12Z"/>
    <path class="cls-1" d="m251.64,443.43c-3.44,0-6.03-.97-7.79-2.9-1.76-1.93-2.63-4.36-2.62-7.31l.17-80.67,9.82.02-.17,82.14,9.33.02-.02,8.72-8.72-.02Z"/>
    <path class="cls-1" d="m295.71,444.99c-4.26,0-8.14-.79-11.66-2.36-3.52-1.56-6.52-3.8-9.01-6.71-2.49-2.91-4.43-6.39-5.81-10.45-1.38-4.06-2.07-8.62-2.06-13.7,0-4.99.72-9.53,2.12-13.62,1.4-4.09,3.35-7.58,5.85-10.49,2.5-2.9,5.51-5.12,9.04-6.67,3.52-1.55,7.41-2.32,11.67-2.31s8.12.8,11.6,2.36c3.47,1.56,6.48,3.8,9.01,6.71,2.53,2.91,4.49,6.41,5.87,10.51,1.38,4.1,2.07,8.64,2.06,13.63,0,5.08-.72,9.64-2.12,13.69-1.4,4.05-3.37,7.52-5.91,10.42-2.54,2.9-5.56,5.13-9.04,6.67-3.48,1.55-7.35,2.32-11.61,2.31Zm.02-8.72c5.32.01,9.66-1.62,13.02-4.88,3.36-3.27,5.05-8.26,5.07-14.97l.02-9.09c.01-6.71-1.65-11.71-5-14.99-3.35-3.28-7.69-4.92-13-4.94-5.32,0-9.66,1.62-13.02,4.88-3.37,3.27-5.05,8.26-5.07,14.97l-.02,9.09c-.01,6.71,1.65,11.71,5,14.99,3.35,3.28,7.68,4.93,13.01,4.94Z"/>
    <path class="cls-1" d="m375.05,433.49h-.49c-.66,1.46-1.46,2.9-2.4,4.31s-2.11,2.67-3.51,3.76c-1.39,1.09-3.07,1.95-5.04,2.6-1.97.64-4.26.96-6.88.96-6.55-.01-11.74-2.13-15.58-6.35-3.84-4.22-5.75-10.18-5.73-17.88l.09-40.64,9.82.02-.08,39.01c-.02,11.4,4.79,17.12,14.45,17.13,1.96,0,3.87-.24,5.71-.73,1.84-.49,3.48-1.22,4.92-2.2,1.43-.98,2.58-2.23,3.44-3.75.86-1.51,1.3-3.34,1.3-5.47l.09-43.93,9.82.02-.13,63.35-9.82-.02.02-10.2Z"/>
    <path class="cls-1" d="m444.04,433.64h-.49c-3.87,7.77-10.05,11.65-18.57,11.63-3.93,0-7.48-.79-10.67-2.35-3.19-1.56-5.91-3.78-8.15-6.65-2.25-2.87-3.96-6.35-5.13-10.45-1.18-4.09-1.76-8.68-1.75-13.76.01-5.07.61-9.65,1.81-13.75,1.19-4.09,2.92-7.57,5.18-10.43s4.98-5.06,8.18-6.61c3.2-1.55,6.76-2.32,10.69-2.31,4.42,0,8.2.97,11.35,2.88,3.15,1.91,5.53,4.85,7.16,8.83h.49l.08-37.7,9.82.02-.19,90.85-9.82-.02.02-10.19Zm-16.34,2.92c2.21,0,4.32-.28,6.32-.85,2.01-.57,3.75-1.41,5.22-2.52,1.48-1.11,2.65-2.46,3.51-4.06.86-1.6,1.29-3.43,1.3-5.49l.05-23.69c0-1.73-.42-3.35-1.28-4.88-.86-1.52-2.02-2.82-3.49-3.89s-3.21-1.92-5.21-2.54c-2.01-.62-4.11-.94-6.32-.94-5.57-.01-9.95,1.73-13.15,5.22-3.2,3.49-4.8,8.08-4.82,13.75l-.02,10.86c-.01,5.68,1.57,10.27,4.76,13.77,3.18,3.5,7.56,5.26,13.13,5.27Z"/>
  </g>
  <path class="cls-1" d="m432.14,169.52h-9.82c0-85.22-61-154.54-135.99-154.54-19.59,0-38.23,4.73-55.08,13.25,42.71,28.7,71.38,81.29,71.38,141.3h-9.82c0-58.59-28.84-109.67-71.24-135.87-42.39,26.2-71.24,77.28-71.24,135.87h-9.82c0-60,28.67-112.6,71.38-141.3-16.85-8.51-35.48-13.25-55.08-13.25C81.84,14.98,20.84,84.31,20.84,169.52h-9.82C11.02,78.89,76.42,5.16,156.83,5.16c23.24,0,45.23,6.16,64.75,17.11,19.52-10.95,41.51-17.11,64.75-17.11,80.4,0,145.81,73.73,145.81,164.36Z"/>
</svg>